<?xml version="1.0" encoding="utf-8"?>
<!-- Generator: Adobe Illustrator 22.0.1, SVG Export Plug-In . SVG Version: 6.00 Build 0)  -->
<svg version="1.1" id="Layer_1" xmlns="http://www.w3.org/2000/svg" xmlns:xlink="http://www.w3.org/1999/xlink" x="0px" y="0px"
	 viewBox="0 0 298 46" style="enable-background:new 0 0 298 46;" xml:space="preserve">
<style type="text/css">
	.st0{fill:#FFFFFF;}
</style>
<title>Group 13</title>
<g>
	<path class="st0" d="M120.6,45.6h-1V42l-4-5.7h1.3l3,4.7l3.4-4.7h1.2l-4,5.7L120.6,45.6z M98.4,36.3h1v8.3h5.5v1h-6.6L98.4,36.3z
		 M93.4,37.3h-6v3.3H93v0.8h-5.3v3.2h6v1h-7v-9.3h7L93.4,37.3z M81,41.6c0,2.8-1.5,4.3-4,4.3c-2.3,0-4-1.5-4-4v-5.6h1.2v5.3
		c0,2,1,3.3,3,3.3c1.7,0,2.8-1,2.8-3v-5.6h1V41.6z M132.8,45.9c-3,0-5-2.3-5-5c0.1-2.3,2.1-4.7,5.1-4.7s5,2.3,5,5c0,2.5-2,4.8-5,4.8
		 M132.8,37.1c-2.2,0-3.8,1.7-3.8,4c0,2,1.6,3.8,3.8,3.8s3.8-1.7,3.8-4C136.6,38.9,135,37.1,132.8,37.1 M226.6,37.6h-1v3.2h-1v-3.2
		h-1v-0.5h3V37.6z M229.6,39.8l1-2.7h1v3.7H231v-3l-1.2,3h-0.4l-1.2-3v3h-0.7v-3.7h1L229.6,39.8L229.6,39.8L229.6,39.8z M215,45.6
		h-1v-8.3h-3.2v-1h7.6v1H215V45.6z M203.6,40.6c2,0.3,3,1,3,2.6s-1.2,2.6-3.2,2.6c-1.5,0-2.7-0.5-4-1.5l0.8-0.7c1,0.8,2,1.3,3.3,1.3
		s2-0.7,2-1.6c0-1-0.4-1.4-2.4-1.8c-2-0.6-3-1.3-3-3c0-1.4,1.2-2.4,3-2.4c1.5,0,2.5,0.3,3.4,1l-0.6,1c-1-0.8-1.8-1-2.8-1
		c-1.2,0-2,0.6-2,1.4c0,1,0.5,1.4,2.6,2C203.7,40.5,203.6,40.6,203.6,40.6z M195,37.3h-5.7v3.3h5.2v0.8h-5.2v3.2h6v1h-7v-9.3h6.8
		L195,37.3z M182.6,38.6c0,1.3-0.6,2-1.4,2.2c1,0.4,2,1,2,2.3c0,1.7-1.3,2.6-3.4,2.6h-4.3v-9.3h4c2,0,3.2,1,3.2,2.3L182.6,38.6z
		 M181.6,38.8c0-1-0.7-1.6-2-1.6h-3v3.4h2.8C180.7,40.6,181.6,39.9,181.6,38.8z M182.2,43.1c0-1-1-1.7-2.6-1.7h-3v3.4h3.2
		C181.3,44.8,182.2,44.1,182.2,43.1L182.2,43.1z M162.6,45.7l-2.8-3.6H157v3.5h-1v-9.3h4c2.2,0,3.6,1,3.6,2.8c0,1.6-1.2,2.5-2.7,2.8
		l3,3.8H162.6L162.6,45.7L162.6,45.7z M160,37.3h-3v3.8h3c1.4,0,2.4-0.7,2.4-2C162.4,38.1,161.4,37.3,160,37.3z M150.6,41.6
		c0,2.8-1.6,4.3-4,4.3s-4-1.5-4-4v-5.6h1v5.3c0,2,1.2,3.3,3,3.3s3-1,3-3v-5.6h1V41.6z M294,0.6h-1V3h-0.6V0.6h-0.7V0.2h2.3L294,0.6
		L294,0.6z M296,2.2l0.7-2h0.7V3H297V0.6L296.2,3h-0.3l-1-2.4V3h-0.4V0.2h0.9l0.8,2H296L296,2.2z M223,10.1v4.2h12v6h-24.5V9.8H206
		v8.4c0,3.7,3.2,6.7,7,6.7h19.3c1.7,0,3.2-0.5,4.4-1.5c1.6-1.2,2.6-3.2,2.6-5.3v-7.7H223C223,10.4,223,10.1,223,10.1z M210.5,4.6
		h28.2c-1-2.5-3.5-4.3-6.4-4.3H213c-3,0-5.5,1.8-6.5,4.3H210.5z M165.2,24.4h-18.8c-3.6,0-6.5-3-6.5-6.6V0h4v20h21.2v4.6L165.2,24.4
		z M285.5,20.4h-24.3V4.6h28.3c-1-2.5-3.5-4.3-6.5-4.3h-19.3c-3.8,0-6.8,3-6.8,6.6v11c0,3.8,3,6.8,6.7,6.8H283c3,0,5.4-1.7,6.4-4.2
		h-4C285.4,20.5,285.5,20.4,285.5,20.4z M194.5,0.3H175c-2.8,0-5.3,1.8-6.2,4.3h28v15.8h-24v-10h-4.5V18c0,3.7,3,6.7,6.8,6.7h19.5
		c3.7,0,6.7-3,6.7-6.6v-11c0-3.8-3-6.7-6.7-6.7C194.6,0.4,194.5,0.3,194.5,0.3z M127,0.3h-19c-3,0-5.4,1.8-6.3,4.3h28v15.8h-24v-10
		H101V18c0,3.7,3,6.7,6.8,6.7H127c4,0,7-3,7-6.6v-11C134,3.3,131,0.4,127,0.3C127,0.4,127,0.3,127,0.3z M42,0.3
		c-3,0-5.3,1.8-6.3,4.3H58V0.2L42,0.3C42,0.2,42,0.3,42,0.3z M67.7,10.4H35.3V18c0,3.7,3,6.7,6.8,6.7h26.2v-4.1H39.6v-6h28.6v-4.2
		C68.2,10.4,67.7,10.4,67.7,10.4z M246.2,24.6h4.4V0.4h-4.4V24.6z M98,4.6H83.6v20h-4.3v-20h-14V0.2h32.5C97.8,0.2,98,4.6,98,4.6z
		 M33.6,24.6h-9.4L8,16.6c-1.5-0.8-2.6-2.4-2.6-4.2c0-2,1-3.5,2.6-4.3l15.8-7.8h9.5L9,12.3L33.6,24.6C33.6,24.7,33.6,24.6,33.6,24.6
		z M0,24.6h4.3V0.4H0V24.6z M61,36v9.4h1v-4h5.5v-1h-5.2V37h5.8v-1"/>
</g>
</svg>
